<svg width="250" height="80" viewBox="0 0 250 80" fill="none" xmlns="http://www.w3.org/2000/svg">
<g clip-path="url(#clip0_1_2)">
<path opacity="0.7" d="M235.582 76.9181C236.366 77.7025 237.297 78.3247 238.322 78.7492C239.347 79.1737 240.445 79.3922 241.554 79.3923C242.663 79.3924 243.762 79.174 244.786 78.7496C245.811 78.3252 246.742 77.7031 247.527 76.9188C248.311 76.1346 248.933 75.2035 249.358 74.1788C249.782 73.1541 250.001 72.0558 250.001 70.9466C250.001 69.8375 249.782 68.7392 249.358 67.7144C248.934 66.6896 248.312 65.7585 247.527 64.9742L185.026 2.47415C183.44 0.900469 181.295 0.0193337 179.061 0.023667C176.827 0.0280004 174.685 0.917449 173.105 2.49727C171.526 4.0771 170.636 6.21857 170.632 8.45282C170.627 10.6871 171.508 12.832 173.082 14.4181L235.582 76.9181Z" fill="url(#paint0_linear_1_2)"/>
<path d="M185.026 76.9181C183.44 78.4918 181.295 79.3729 179.061 79.3686C176.827 79.3643 174.685 78.4748 173.105 76.895C171.526 75.3152 170.636 73.1737 170.632 70.9394C170.627 68.7052 171.508 66.5602 173.082 64.9742L235.582 2.47416C236.366 1.68981 237.297 1.06761 238.322 0.643092C239.347 0.21857 240.445 3.65386e-05 241.554 -3.05021e-05C242.663 -9.75429e-05 243.762 0.218305 244.786 0.642703C245.811 1.0671 246.742 1.68919 247.527 2.47344C248.311 3.25769 248.933 4.18875 249.358 5.21346C249.782 6.23817 250.001 7.33646 250.001 8.44563C250.001 9.5548 249.782 10.6531 249.358 11.6779C248.934 12.7026 248.312 13.6338 247.527 14.4181L185.026 76.9181Z" fill="url(#paint1_linear_1_2)"/>
<path opacity="0.7" d="M125 62.5C130.152 62.5 135.093 60.4534 138.736 56.8104C142.379 53.1674 144.426 48.2264 144.426 43.0744V8.76009C144.426 3.92246 148.037 0 152.872 0C157.707 0 161.317 3.92246 161.317 8.76009V43.0744C161.317 52.7064 157.491 61.9439 150.68 68.7548C143.869 75.5657 134.632 79.3921 125 79.3923C122.76 79.3923 120.612 78.5024 119.028 76.9184C117.444 75.3345 116.554 73.1862 116.554 70.9461C116.554 68.7061 117.444 66.5578 119.028 64.9738C120.612 63.3899 122.76 62.5 125 62.5V62.5Z" fill="url(#paint2_linear_1_2)"/>
<path opacity="0.7" d="M70.9459 0C66.1107 0 62.5 3.92246 62.5 8.76009V70.6322C62.5 75.4698 66.1087 79.3923 70.9459 79.3923C75.783 79.3923 79.3918 75.4698 79.3918 70.6322V8.76009C79.3918 3.92246 75.7806 0 70.9459 0Z" fill="url(#paint3_linear_1_2)"/>
<path d="M152.872 1.37109e-08C151.201 -9.51514e-05 149.568 0.495205 148.179 1.42327C146.79 2.35133 145.707 3.67047 145.068 5.21387C144.428 6.75726 144.261 8.45558 144.587 10.0941C144.913 11.7325 145.717 13.2376 146.899 14.4189C148.08 15.6001 149.585 16.4046 151.223 16.7305C152.862 17.0564 154.56 16.8891 156.104 16.2497C157.647 15.6104 158.966 14.5277 159.894 13.1386C160.822 11.7496 161.317 10.1165 161.317 8.44589C161.317 6.2059 160.428 4.05766 158.844 2.47374C157.26 0.889831 155.111 1.37109e-08 152.872 1.37109e-08Z" fill="url(#paint4_linear_1_2)"/>
<path d="M241.554 62.5005C239.883 62.5006 238.25 62.996 236.861 63.9241C235.473 64.8523 234.39 66.1714 233.751 67.7147C233.112 69.258 232.945 70.9562 233.271 72.5946C233.597 74.2329 234.401 75.7377 235.582 76.9189C236.764 78.1 238.268 78.9043 239.907 79.2301C241.545 79.5559 243.243 79.3885 244.787 78.7492C246.33 78.1098 247.649 77.0272 248.577 75.6383C249.505 74.2493 250 72.6163 250 70.9459C250 69.8367 249.782 68.7385 249.357 67.7137C248.933 66.689 248.31 65.758 247.526 64.9737C246.742 64.1895 245.811 63.5674 244.786 63.1431C243.761 62.7187 242.663 62.5003 241.554 62.5005V62.5005Z" fill="url(#paint5_linear_1_2)"/>
<path d="M8.44589 0C3.61066 0 0 3.92246 0 8.76009V70.6322C0 75.4698 3.60874 79.3923 8.44589 79.3923C13.283 79.3923 16.8918 75.4698 16.8918 70.6322V8.76009C16.8918 3.92246 13.2806 0 8.44589 0Z" fill="url(#paint6_linear_1_2)"/>
<path d="M70.9459 79.3918C75.6104 79.3918 79.3918 75.6104 79.3918 70.9459C79.3918 66.2814 75.6104 62.5 70.9459 62.5C66.2814 62.5 62.5 66.2814 62.5 70.9459C62.5 75.6104 66.2814 79.3918 70.9459 79.3918Z" fill="url(#paint7_linear_1_2)"/>
<path opacity="0.7" d="M33.7239 45.6684C35.3078 47.2523 37.4561 48.1421 39.6961 48.1421C41.9362 48.1421 44.0844 47.2523 45.6684 45.6684C47.2523 44.0844 48.1421 41.9362 48.1421 39.6961C48.1421 37.4561 47.2523 35.3078 45.6684 33.7239L14.4181 2.47415C12.8321 0.900469 10.6872 0.0193337 8.45292 0.023667C6.21867 0.0280004 4.07716 0.917449 2.49727 2.49727C0.917384 4.0771 0.0278469 6.21857 0.0234236 8.45282C0.0190002 10.6871 0.900051 12.832 2.47367 14.4181L33.7239 45.6684Z" fill="url(#paint8_linear_1_2)"/>
<path d="M45.6683 45.6684C44.8841 46.4526 43.953 47.0748 42.9283 47.4992C41.9036 47.9237 40.8053 48.1421 39.6961 48.1421C38.587 48.1421 37.4887 47.9237 36.464 47.4992C35.4393 47.0748 34.5082 46.4526 33.7239 45.6684C32.9396 44.8841 32.3175 43.953 31.893 42.9283C31.4686 41.9036 31.2501 40.8053 31.2501 39.6961C31.2501 38.587 31.4686 37.4887 31.893 36.464C32.3175 35.4393 32.9396 34.5082 33.7239 33.7239L64.9732 2.47415C65.7563 1.68482 66.6876 1.05789 67.7136 0.629341C68.7396 0.200791 69.8402 -0.0209449 70.9521 -0.0231463C72.064 -0.0253476 73.1654 0.19203 74.1931 0.616514C75.2208 1.041 76.1546 1.66423 76.9408 2.45046C77.7271 3.23669 78.3504 4.17043 78.7749 5.19812C79.1994 6.2258 79.4168 7.3272 79.4147 8.43911C79.4125 9.55102 79.1908 10.6516 78.7623 11.6776C78.3338 12.7036 77.7069 13.6349 76.9176 14.4181L45.6683 45.6684Z" fill="url(#paint9_linear_1_2)"/>
<path d="M125 62.5C119.848 62.5 114.907 60.4534 111.264 56.8104C107.621 53.1674 105.574 48.2264 105.574 43.0744V8.76009C105.574 3.92246 101.966 0 97.128 0C92.2904 0 88.6826 3.92246 88.6826 8.76009V43.0744C88.6825 47.8437 89.6219 52.5663 91.447 56.9726C93.2721 61.3789 95.9472 65.3825 99.3195 68.755C102.692 72.1274 106.696 74.8026 111.102 76.6277C115.508 78.4529 120.231 79.3923 125 79.3923C127.24 79.3923 129.388 78.5024 130.972 76.9184C132.556 75.3345 133.446 73.1862 133.446 70.9461C133.446 68.7061 132.556 66.5578 130.972 64.9738C129.388 63.3899 127.24 62.5 125 62.5V62.5Z" fill="url(#paint10_linear_1_2)"/>
</g>
<defs>
<linearGradient id="paint0_linear_1_2" x1="-2.47246" y1="39.708" x2="251.667" y2="39.708" gradientUnits="userSpaceOnUse">
<stop stop-color="#FF4E00"/>
<stop offset="1" stop-color="#FF1791"/>
</linearGradient>
<linearGradient id="paint1_linear_1_2" x1="-0.488226" y1="-3.05176e-05" x2="251.429" y2="-3.05176e-05" gradientUnits="userSpaceOnUse">
<stop stop-color="#FF4E00"/>
<stop offset="1" stop-color="#FF1791"/>
</linearGradient>
<linearGradient id="paint2_linear_1_2" x1="8.2709" y1="0" x2="260.827" y2="0" gradientUnits="userSpaceOnUse">
<stop stop-color="#FF4E00"/>
<stop offset="1" stop-color="#FF1791"/>
</linearGradient>
<linearGradient id="paint3_linear_1_2" x1="-2.53336" y1="0" x2="249.999" y2="0" gradientUnits="userSpaceOnUse">
<stop stop-color="#FF4E00"/>
<stop offset="1" stop-color="#FF1791"/>
</linearGradient>
<linearGradient id="paint4_linear_1_2" x1="-0.565838" y1="0" x2="251.136" y2="0" gradientUnits="userSpaceOnUse">
<stop stop-color="#FF4E00"/>
<stop offset="1" stop-color="#FF1791"/>
</linearGradient>
<linearGradient id="paint5_linear_1_2" x1="-2.53205" y1="62.5005" x2="250" y2="62.5005" gradientUnits="userSpaceOnUse">
<stop stop-color="#FF4E00"/>
<stop offset="1" stop-color="#FF1791"/>
</linearGradient>
<linearGradient id="paint6_linear_1_2" x1="-2.53377" y1="0" x2="249.998" y2="0" gradientUnits="userSpaceOnUse">
<stop stop-color="#FF4E00"/>
<stop offset="1" stop-color="#FF1791"/>
</linearGradient>
<linearGradient id="paint7_linear_1_2" x1="-2.53338" y1="62.5" x2="249.999" y2="62.5" gradientUnits="userSpaceOnUse">
<stop stop-color="#FF4E00"/>
<stop offset="1" stop-color="#FF1791"/>
</linearGradient>
<linearGradient id="paint8_linear_1_2" x1="0.023407" y1="0.0236511" x2="251.059" y2="0.0236511" gradientUnits="userSpaceOnUse">
<stop stop-color="#FF4E00"/>
<stop offset="1" stop-color="#FF1791"/>
</linearGradient>
<linearGradient id="paint9_linear_1_2" x1="-0.875651" y1="-0.0231628" x2="250.929" y2="-0.0231628" gradientUnits="userSpaceOnUse">
<stop stop-color="#FF4E00"/>
<stop offset="1" stop-color="#FF1791"/>
</linearGradient>
<linearGradient id="paint10_linear_1_2" x1="-2.54546" y1="0" x2="250.01" y2="0" gradientUnits="userSpaceOnUse">
<stop stop-color="#FF4E00"/>
<stop offset="1" stop-color="#FF1791"/>
</linearGradient>
<clipPath id="clip0_1_2">
<rect width="250" height="79.3923" fill="white"/>
</clipPath>
</defs>
</svg>
